<svg id="visual" viewBox="0 0 900 600" width="900" height="600" xmlns="http://www.w3.org/2000/svg" xmlns:xlink="http://www.w3.org/1999/xlink" version="1.1"><g stroke-width="1" stroke-linejoin="bevel"><path d="M459 291.3L419 272L411 286.3Z" fill="#1b455a" stroke="#1b455a"></path><path d="M459 291.3L420 235L419 272Z" fill="#183a4e" stroke="#183a4e"></path><path d="M419 272L318 271L411 286.3Z" fill="#1a4156" stroke="#1a4156"></path><path d="M411 286.3L430 369.7L459 291.3Z" fill="#12293b" stroke="#12293b"></path><path d="M515 309.1L514 307L459 291.3Z" fill="#12293b" stroke="#12293b"></path><path d="M459 291.3L504 218.3L420 235Z" fill="#153043" stroke="#153043"></path><path d="M487 367.6L515 309.1L459 291.3Z" fill="#1b455a" stroke="#1b455a"></path><path d="M327 298.1L352 314.7L318 271Z" fill="#153043" stroke="#153043"></path><path d="M411 286.3L352 349.6L430 369.7Z" fill="#193e52" stroke="#193e52"></path><path d="M531 295.9L515 246.3L514 307Z" fill="#1b485e" stroke="#1b485e"></path><path d="M514 307L515 246.3L459 291.3Z" fill="#17374a" stroke="#17374a"></path><path d="M430 369.7L487 367.6L459 291.3Z" fill="#12293b" stroke="#12293b"></path><path d="M533 303.9L514 307L515 309.1Z" fill="#132c3f" stroke="#132c3f"></path><path d="M533 303.9L531 295.9L514 307Z" fill="#1a4156" stroke="#1a4156"></path><path d="M430 369.7L476 378.9L487 367.6Z" fill="#132c3f" stroke="#132c3f"></path><path d="M537 327.7L533 303.9L515 309.1Z" fill="#17374a" stroke="#17374a"></path><path d="M515 246.3L504 218.3L459 291.3Z" fill="#17374a" stroke="#17374a"></path><path d="M352 314.7L352 349.6L411 286.3Z" fill="#1a4156" stroke="#1a4156"></path><path d="M352 314.7L341 335L352 349.6Z" fill="#153043" stroke="#153043"></path><path d="M460 183.4L387 196.3L420 235Z" fill="#163346" stroke="#163346"></path><path d="M318 271L352 314.7L411 286.3Z" fill="#1a4156" stroke="#1a4156"></path><path d="M352 314.7L325 313.9L341 335Z" fill="#1c4c62" stroke="#1c4c62"></path><path d="M423 405.6L438 396.6L430 369.7Z" fill="#132c3f" stroke="#132c3f"></path><path d="M430 369.7L438 396.6L476 378.9Z" fill="#1b455a" stroke="#1b455a"></path><path d="M318 271L419 272L420 235Z" fill="#132c3f" stroke="#132c3f"></path><path d="M534 353.6L515 309.1L487 367.6Z" fill="#1b485e" stroke="#1b485e"></path><path d="M534 353.6L537 327.7L515 309.1Z" fill="#1b455a" stroke="#1b455a"></path><path d="M504 218.3L460 183.4L420 235Z" fill="#132c3f" stroke="#132c3f"></path><path d="M574 269L530 231.1L515 246.3Z" fill="#153043" stroke="#153043"></path><path d="M515 246.3L530 231.1L504 218.3Z" fill="#1a4156" stroke="#1a4156"></path><path d="M504 218.3L519 209.4L460 183.4Z" fill="#1c4c62" stroke="#1c4c62"></path><path d="M574 269L515 246.3L531 295.9Z" fill="#183a4e" stroke="#183a4e"></path><path d="M562 301.9L531 295.9L533 303.9Z" fill="#163346" stroke="#163346"></path><path d="M327 298.1L325 313.9L352 314.7Z" fill="#1b455a" stroke="#1b455a"></path><path d="M338 407.6L393 409.6L352 349.6Z" fill="#1c4c62" stroke="#1c4c62"></path><path d="M380 169.4L374 195.1L387 196.3Z" fill="#163346" stroke="#163346"></path><path d="M387 196.3L374 195.1L420 235Z" fill="#1c4c62" stroke="#1c4c62"></path><path d="M393 409.6L423 405.6L430 369.7Z" fill="#17374a" stroke="#17374a"></path><path d="M507 416.9L507 389.7L476 378.9Z" fill="#17374a" stroke="#17374a"></path><path d="M530 231.1L519 209.4L504 218.3Z" fill="#1a4156" stroke="#1a4156"></path><path d="M507 389.7L534 353.6L487 367.6Z" fill="#1c4c62" stroke="#1c4c62"></path><path d="M507 389.7L487 367.6L476 378.9Z" fill="#1a4156" stroke="#1a4156"></path><path d="M374 195.1L318 271L420 235Z" fill="#193e52" stroke="#193e52"></path><path d="M327 298.1L269 278L325 313.9Z" fill="#1a4156" stroke="#1a4156"></path><path d="M434 416.9L476 378.9L438 396.6Z" fill="#1a4156" stroke="#1a4156"></path><path d="M338 407.6L352 349.6L341 335Z" fill="#1b455a" stroke="#1b455a"></path><path d="M352 349.6L393 409.6L430 369.7Z" fill="#1b485e" stroke="#1b485e"></path><path d="M393 409.6L434 416.9L423 405.6Z" fill="#193e52" stroke="#193e52"></path><path d="M423 405.6L434 416.9L438 396.6Z" fill="#1a4156" stroke="#1a4156"></path><path d="M590 303L562 301.9L537 327.7Z" fill="#1c4c62" stroke="#1c4c62"></path><path d="M537 327.7L562 301.9L533 303.9Z" fill="#1a4156" stroke="#1a4156"></path><path d="M460 183.4L380 169.4L387 196.3Z" fill="#1b485e" stroke="#1b485e"></path><path d="M374 195.1L281 198.4L318 271Z" fill="#1b485e" stroke="#1b485e"></path><path d="M562 301.9L574 269L531 295.9Z" fill="#183a4e" stroke="#183a4e"></path><path d="M530 231.1L576 238.4L519 209.4Z" fill="#153043" stroke="#153043"></path><path d="M434 416.9L507 416.9L476 378.9Z" fill="#183a4e" stroke="#183a4e"></path><path d="M507 389.7L565 387.7L534 353.6Z" fill="#1b485e" stroke="#1b485e"></path><path d="M589 379L590 303L537 327.7Z" fill="#1a4156" stroke="#1a4156"></path><path d="M574 269L576 238.4L530 231.1Z" fill="#1a4156" stroke="#1a4156"></path><path d="M574 269L580 250.1L576 238.4Z" fill="#153043" stroke="#153043"></path><path d="M423 130.7L385 147.7L380 169.4Z" fill="#1a4156" stroke="#1a4156"></path><path d="M380 169.4L337 162.6L374 195.1Z" fill="#193e52" stroke="#193e52"></path><path d="M423 130.7L380 169.4L460 183.4Z" fill="#12293b" stroke="#12293b"></path><path d="M477 135.6L460 183.4L507 131.7Z" fill="#132c3f" stroke="#132c3f"></path><path d="M477 135.6L451 139.3L460 183.4Z" fill="#1a4156" stroke="#1a4156"></path><path d="M248 327.1L341 335L325 313.9Z" fill="#1c4c62" stroke="#1c4c62"></path><path d="M248 327.1L338 407.6L341 335Z" fill="#163346" stroke="#163346"></path><path d="M468 466.4L490 452.7L434 416.9Z" fill="#1b455a" stroke="#1b455a"></path><path d="M589 379L537 327.7L534 353.6Z" fill="#153043" stroke="#153043"></path><path d="M562 301.9L590 303L574 269Z" fill="#1a4156" stroke="#1a4156"></path><path d="M574 269L610 270.1L580 250.1Z" fill="#163346" stroke="#163346"></path><path d="M451 139.3L423 130.7L460 183.4Z" fill="#1b485e" stroke="#1b485e"></path><path d="M507 131.7L460 183.4L519 209.4Z" fill="#163346" stroke="#163346"></path><path d="M451 139.3L451 110.6L423 130.7Z" fill="#193e52" stroke="#193e52"></path><path d="M311 150.6L301 132.7L305 144.4Z" fill="#1a4156" stroke="#1a4156"></path><path d="M385 147.7L337 162.6L380 169.4Z" fill="#1b485e" stroke="#1b485e"></path><path d="M507 416.9L565 387.7L507 389.7Z" fill="#1b455a" stroke="#1b455a"></path><path d="M507 131.7L475 130.7L477 135.6Z" fill="#153043" stroke="#153043"></path><path d="M477 135.6L475 130.7L451 139.3Z" fill="#1b455a" stroke="#1b455a"></path><path d="M269 269.3L269 278L318 271Z" fill="#193e52" stroke="#193e52"></path><path d="M318 271L269 278L327 298.1Z" fill="#183a4e" stroke="#183a4e"></path><path d="M281 198.4L269 269.3L318 271Z" fill="#132c3f" stroke="#132c3f"></path><path d="M468 466.4L434 416.9L424 476.1Z" fill="#163346" stroke="#163346"></path><path d="M434 416.9L490 452.7L507 416.9Z" fill="#183a4e" stroke="#183a4e"></path><path d="M507 416.9L537 441.4L565 387.7Z" fill="#163346" stroke="#163346"></path><path d="M596 161.6L507 131.7L519 209.4Z" fill="#193e52" stroke="#193e52"></path><path d="M660 263.9L610 270.1L590 303Z" fill="#163346" stroke="#163346"></path><path d="M590 303L610 270.1L574 269Z" fill="#12293b" stroke="#12293b"></path><path d="M580 250.1L621 238.4L576 238.4Z" fill="#193e52" stroke="#193e52"></path><path d="M576 238.4L596 161.6L519 209.4Z" fill="#1b455a" stroke="#1b455a"></path><path d="M573 417.4L589 379L565 387.7Z" fill="#1b485e" stroke="#1b485e"></path><path d="M565 387.7L589 379L534 353.6Z" fill="#1a4156" stroke="#1a4156"></path><path d="M337 162.6L281 198.4L374 195.1Z" fill="#1c4c62" stroke="#1c4c62"></path><path d="M424 476.1L434 416.9L393 409.6Z" fill="#1b455a" stroke="#1b455a"></path><path d="M475 130.7L451 110.6L451 139.3Z" fill="#1c4c62" stroke="#1c4c62"></path><path d="M311 150.6L355 96.9L301 132.7Z" fill="#17374a" stroke="#17374a"></path><path d="M465 102.6L451 110.6L475 130.7Z" fill="#183a4e" stroke="#183a4e"></path><path d="M495 473.3L537 441.4L490 452.7Z" fill="#1b485e" stroke="#1b485e"></path><path d="M490 452.7L537 441.4L507 416.9Z" fill="#1a4156" stroke="#1a4156"></path><path d="M337 457.4L424 476.1L393 409.6Z" fill="#17374a" stroke="#17374a"></path><path d="M337 162.6L355 96.9L311 150.6Z" fill="#163346" stroke="#163346"></path><path d="M337 162.6L290 170.4L281 198.4Z" fill="#12293b" stroke="#12293b"></path><path d="M537 441.4L573 417.4L565 387.7Z" fill="#12293b" stroke="#12293b"></path><path d="M311 150.6L290 170.4L337 162.6Z" fill="#1a4156" stroke="#1a4156"></path><path d="M507 131.7L465 102.6L475 130.7Z" fill="#1a4156" stroke="#1a4156"></path><path d="M337 162.6L385 147.7L355 96.9Z" fill="#1c4c62" stroke="#1c4c62"></path><path d="M243 320.9L269 278L237 312.1Z" fill="#132c3f" stroke="#132c3f"></path><path d="M243 320.9L248 327.1L269 278Z" fill="#1a4156" stroke="#1a4156"></path><path d="M269 278L248 327.1L325 313.9Z" fill="#17374a" stroke="#17374a"></path><path d="M495 490.4L495 473.3L494 491.3Z" fill="#1b485e" stroke="#1b485e"></path><path d="M468 466.4L495 473.3L490 452.7Z" fill="#1a4156" stroke="#1a4156"></path><path d="M537 441.4L546 473.3L573 417.4Z" fill="#12293b" stroke="#12293b"></path><path d="M638 228.1L621 238.4L660 263.9Z" fill="#1b485e" stroke="#1b485e"></path><path d="M610 270.1L621 238.4L580 250.1Z" fill="#12293b" stroke="#12293b"></path><path d="M634 393.7L614 362.7L589 379Z" fill="#1b485e" stroke="#1b485e"></path><path d="M589 379L614 362.7L590 303Z" fill="#1b455a" stroke="#1b455a"></path><path d="M273 440.3L337 457.4L338 407.6Z" fill="#17374a" stroke="#17374a"></path><path d="M338 407.6L337 457.4L393 409.6Z" fill="#132c3f" stroke="#132c3f"></path><path d="M244 249.3L269 278L269 269.3Z" fill="#132c3f" stroke="#132c3f"></path><path d="M248 327.1L273 440.3L338 407.6Z" fill="#132c3f" stroke="#132c3f"></path><path d="M250 220.3L269 269.3L281 198.4Z" fill="#132c3f" stroke="#132c3f"></path><path d="M250 220.3L244 249.3L269 269.3Z" fill="#1c4c62" stroke="#1c4c62"></path><path d="M311 150.6L305 144.4L290 170.4Z" fill="#193e52" stroke="#193e52"></path><path d="M258 183.6L250 220.3L281 198.4Z" fill="#132c3f" stroke="#132c3f"></path><path d="M385 147.7L378 83.9L355 96.9Z" fill="#163346" stroke="#163346"></path><path d="M258 183.6L281 198.4L290 170.4Z" fill="#12293b" stroke="#12293b"></path><path d="M244 249.3L237 312.1L269 278Z" fill="#163346" stroke="#163346"></path><path d="M264 441.4L273 440.3L243 429.7Z" fill="#193e52" stroke="#193e52"></path><path d="M621 238.4L618 200.1L576 238.4Z" fill="#1b455a" stroke="#1b455a"></path><path d="M499 53.6L465 53.9L465 102.6Z" fill="#1b455a" stroke="#1b455a"></path><path d="M618 200.1L596 161.6L576 238.4Z" fill="#153043" stroke="#153043"></path><path d="M301 132.7L258 183.6L290 170.4Z" fill="#1b485e" stroke="#1b485e"></path><path d="M385 147.7L423 130.7L378 83.9Z" fill="#163346" stroke="#163346"></path><path d="M305 144.4L301 132.7L290 170.4Z" fill="#132c3f" stroke="#132c3f"></path><path d="M494 491.3L495 473.3L468 466.4Z" fill="#163346" stroke="#163346"></path><path d="M495 473.3L546 473.3L537 441.4Z" fill="#183a4e" stroke="#183a4e"></path><path d="M378 83.9L423 130.7L451 110.6Z" fill="#1b485e" stroke="#1b485e"></path><path d="M457 500.1L494 491.3L468 466.4Z" fill="#153043" stroke="#153043"></path><path d="M457 500.1L468 466.4L424 476.1Z" fill="#183a4e" stroke="#183a4e"></path><path d="M393 505.4L457 500.1L424 476.1Z" fill="#12293b" stroke="#12293b"></path><path d="M621 238.4L638 228.1L618 200.1Z" fill="#1b455a" stroke="#1b455a"></path><path d="M633 104.4L595 114.6L596 161.6Z" fill="#193e52" stroke="#193e52"></path><path d="M660 263.9L621 238.4L610 270.1Z" fill="#1c4c62" stroke="#1c4c62"></path><path d="M465 53.9L378 83.9L451 110.6Z" fill="#17374a" stroke="#17374a"></path><path d="M495 490.4L546 473.3L495 473.3Z" fill="#17374a" stroke="#17374a"></path><path d="M573 417.4L634 393.7L589 379Z" fill="#1c4c62" stroke="#1c4c62"></path><path d="M531 600L546 473.3L495 490.4Z" fill="#1b455a" stroke="#1b455a"></path><path d="M368 499.3L393 505.4L424 476.1Z" fill="#1b455a" stroke="#1b455a"></path><path d="M337 457.4L368 499.3L424 476.1Z" fill="#17374a" stroke="#17374a"></path><path d="M273 440.3L248 327.1L243 429.7Z" fill="#153043" stroke="#153043"></path><path d="M337 457.4L303 480.6L368 499.3Z" fill="#132c3f" stroke="#132c3f"></path><path d="M655 463.4L634 393.7L573 417.4Z" fill="#17374a" stroke="#17374a"></path><path d="M614 362.7L660 263.9L590 303Z" fill="#1b455a" stroke="#1b455a"></path><path d="M675 269.9L660 263.9L614 362.7Z" fill="#1b455a" stroke="#1b455a"></path><path d="M243 429.7L248 327.1L224 408.7Z" fill="#193e52" stroke="#193e52"></path><path d="M273 440.3L303 480.6L337 457.4Z" fill="#17374a" stroke="#17374a"></path><path d="M382 39.7L357 74.6L378 83.9Z" fill="#1a4156" stroke="#1a4156"></path><path d="M378 83.9L357 74.6L355 96.9Z" fill="#1b485e" stroke="#1b485e"></path><path d="M355 96.9L289 86.7L301 132.7Z" fill="#1b485e" stroke="#1b485e"></path><path d="M283 496.6L303 480.6L273 440.3Z" fill="#193e52" stroke="#193e52"></path><path d="M224 408.7L248 327.1L198 363.9Z" fill="#153043" stroke="#153043"></path><path d="M264 441.4L283 496.6L273 440.3Z" fill="#153043" stroke="#153043"></path><path d="M667 161.3L618 200.1L681 182.1Z" fill="#183a4e" stroke="#183a4e"></path><path d="M667 161.3L596 161.6L618 200.1Z" fill="#1a4156" stroke="#1a4156"></path><path d="M596 161.6L595 114.6L507 131.7Z" fill="#1a4156" stroke="#1a4156"></path><path d="M465 102.6L465 53.9L451 110.6Z" fill="#1b455a" stroke="#1b455a"></path><path d="M499 53.6L465 102.6L507 131.7Z" fill="#1c4c62" stroke="#1c4c62"></path><path d="M208 198.6L198 261L244 249.3Z" fill="#1c4c62" stroke="#1c4c62"></path><path d="M244 249.3L198 261L237 312.1Z" fill="#1c4c62" stroke="#1c4c62"></path><path d="M195 332L248 327.1L243 320.9Z" fill="#1b485e" stroke="#1b485e"></path><path d="M208 198.6L244 249.3L250 220.3Z" fill="#12293b" stroke="#12293b"></path><path d="M226 169.3L223 177.4L258 183.6Z" fill="#1c4c62" stroke="#1c4c62"></path><path d="M258 183.6L223 177.4L250 220.3Z" fill="#153043" stroke="#153043"></path><path d="M226 169.3L258 183.6L301 132.7Z" fill="#17374a" stroke="#17374a"></path><path d="M678 366.6L675 269.9L614 362.7Z" fill="#153043" stroke="#153043"></path><path d="M722 227.4L681 182.1L638 228.1Z" fill="#183a4e" stroke="#183a4e"></path><path d="M242 92.4L226 169.3L301 132.7Z" fill="#153043" stroke="#153043"></path><path d="M195 332L243 320.9L237 312.1Z" fill="#17374a" stroke="#17374a"></path><path d="M198 261L195 332L237 312.1Z" fill="#12293b" stroke="#12293b"></path><path d="M204 186.1L208 198.6L223 177.4Z" fill="#1b455a" stroke="#1b455a"></path><path d="M223 177.4L208 198.6L250 220.3Z" fill="#183a4e" stroke="#183a4e"></path><path d="M595 114.6L499 53.6L507 131.7Z" fill="#1b485e" stroke="#1b485e"></path><path d="M195 332L198 363.9L248 327.1Z" fill="#153043" stroke="#153043"></path><path d="M312 516.1L351 525.3L368 499.3Z" fill="#12293b" stroke="#12293b"></path><path d="M368 499.3L351 525.3L393 505.4Z" fill="#132c3f" stroke="#132c3f"></path><path d="M393 505.4L457 550.4L457 500.1Z" fill="#1c4c62" stroke="#1c4c62"></path><path d="M312 516.1L368 499.3L303 480.6Z" fill="#1b485e" stroke="#1b485e"></path><path d="M291 68.9L289 86.7L357 74.6Z" fill="#193e52" stroke="#193e52"></path><path d="M357 74.6L289 86.7L355 96.9Z" fill="#1b485e" stroke="#1b485e"></path><path d="M499 53.6L477 41.9L465 53.9Z" fill="#1a4156" stroke="#1a4156"></path><path d="M465 53.9L382 39.7L378 83.9Z" fill="#153043" stroke="#153043"></path><path d="M167 192.3L204 186.1L157 148.7Z" fill="#1a4156" stroke="#1a4156"></path><path d="M226 169.3L204 186.1L223 177.4Z" fill="#1a4156" stroke="#1a4156"></path><path d="M208 198.6L190 202.3L198 261Z" fill="#12293b" stroke="#12293b"></path><path d="M700 397.7L678 366.6L634 393.7Z" fill="#153043" stroke="#153043"></path><path d="M634 393.7L678 366.6L614 362.7Z" fill="#12293b" stroke="#12293b"></path><path d="M461 0L382 39.7L465 53.9Z" fill="#193e52" stroke="#193e52"></path><path d="M216 470.3L264 441.4L243 429.7Z" fill="#193e52" stroke="#193e52"></path><path d="M219 488.6L283 496.6L264 441.4Z" fill="#1b455a" stroke="#1b455a"></path><path d="M283 496.6L312 516.1L303 480.6Z" fill="#12293b" stroke="#12293b"></path><path d="M167 192.3L190 202.3L204 186.1Z" fill="#17374a" stroke="#17374a"></path><path d="M204 186.1L190 202.3L208 198.6Z" fill="#1b485e" stroke="#1b485e"></path><path d="M198 261L161 264L195 332Z" fill="#163346" stroke="#163346"></path><path d="M383 555.3L457 550.4L393 505.4Z" fill="#163346" stroke="#163346"></path><path d="M457 500.1L457 550.4L494 491.3Z" fill="#183a4e" stroke="#183a4e"></path><path d="M494 491.3L531 600L495 490.4Z" fill="#1b455a" stroke="#1b455a"></path><path d="M546 473.3L612 492.6L573 417.4Z" fill="#183a4e" stroke="#183a4e"></path><path d="M383 555.3L393 505.4L351 525.3Z" fill="#163346" stroke="#163346"></path><path d="M329 7.9L291 68.9L357 74.6Z" fill="#193e52" stroke="#193e52"></path><path d="M289 86.7L242 92.4L301 132.7Z" fill="#1b485e" stroke="#1b485e"></path><path d="M681 182.1L618 200.1L638 228.1Z" fill="#1b455a" stroke="#1b455a"></path><path d="M297 556.1L353 544.1L312 516.1Z" fill="#132c3f" stroke="#132c3f"></path><path d="M312 516.1L353 544.1L351 525.3Z" fill="#132c3f" stroke="#132c3f"></path><path d="M722 227.4L638 228.1L660 263.9Z" fill="#183a4e" stroke="#183a4e"></path><path d="M722 227.4L660 263.9L675 269.9Z" fill="#1b485e" stroke="#1b485e"></path><path d="M625 510.4L612 492.6L620 558.1Z" fill="#1c4c62" stroke="#1c4c62"></path><path d="M353 544.1L383 555.3L351 525.3Z" fill="#1c4c62" stroke="#1c4c62"></path><path d="M667 161.3L633 104.4L596 161.6Z" fill="#163346" stroke="#163346"></path><path d="M595 114.6L609 68.7L499 53.6Z" fill="#1c4c62" stroke="#1c4c62"></path><path d="M551 0L461 0L477 41.9Z" fill="#1b455a" stroke="#1b455a"></path><path d="M609 68.7L633 104.4L636 51.7Z" fill="#1b485e" stroke="#1b485e"></path><path d="M190 202.3L161 264L198 261Z" fill="#132c3f" stroke="#132c3f"></path><path d="M195 332L151 371.7L198 363.9Z" fill="#1b455a" stroke="#1b455a"></path><path d="M249 61.9L242 92.4L289 86.7Z" fill="#17374a" stroke="#17374a"></path><path d="M719 356.9L710 338.9L678 366.6Z" fill="#1c4c62" stroke="#1c4c62"></path><path d="M678 366.6L710 338.9L675 269.9Z" fill="#1c4c62" stroke="#1c4c62"></path><path d="M612 492.6L655 463.4L573 417.4Z" fill="#1a4156" stroke="#1a4156"></path><path d="M633 104.4L609 68.7L595 114.6Z" fill="#1b455a" stroke="#1b455a"></path><path d="M195 441.7L216 470.3L243 429.7Z" fill="#17374a" stroke="#17374a"></path><path d="M278 552.1L297 556.1L312 516.1Z" fill="#153043" stroke="#153043"></path><path d="M195 441.7L243 429.7L224 408.7Z" fill="#1b455a" stroke="#1b455a"></path><path d="M195 441.7L224 408.7L148 408.9Z" fill="#183a4e" stroke="#183a4e"></path><path d="M148 408.9L224 408.7L198 363.9Z" fill="#1a4156" stroke="#1a4156"></path><path d="M157 148.7L204 186.1L226 169.3Z" fill="#163346" stroke="#163346"></path><path d="M190 202.3L167 192.3L161 264Z" fill="#183a4e" stroke="#183a4e"></path><path d="M655 463.4L700 397.7L634 393.7Z" fill="#1b485e" stroke="#1b485e"></path><path d="M625 510.4L651 481.1L612 492.6Z" fill="#1b455a" stroke="#1b455a"></path><path d="M612 492.6L651 481.1L655 463.4Z" fill="#1b455a" stroke="#1b455a"></path><path d="M735 446.4L733 392.4L700 397.7Z" fill="#193e52" stroke="#193e52"></path><path d="M620 558.1L612 492.6L594 580.3Z" fill="#1b455a" stroke="#1b455a"></path><path d="M551 0L477 41.9L499 53.6Z" fill="#12293b" stroke="#12293b"></path><path d="M477 41.9L461 0L465 53.9Z" fill="#12293b" stroke="#12293b"></path><path d="M248 25.7L249 61.9L291 68.9Z" fill="#1c4c62" stroke="#1c4c62"></path><path d="M700 397.7L719 356.9L678 366.6Z" fill="#183a4e" stroke="#183a4e"></path><path d="M733 239.4L723 237L737 269.3Z" fill="#153043" stroke="#153043"></path><path d="M723 237L675 269.9L737 269.3Z" fill="#1a4156" stroke="#1a4156"></path><path d="M685 113.9L667 103.4L667 161.3Z" fill="#1a4156" stroke="#1a4156"></path><path d="M636 51.7L615 56.7L609 68.7Z" fill="#132c3f" stroke="#132c3f"></path><path d="M186 459.7L219 488.6L216 470.3Z" fill="#12293b" stroke="#12293b"></path><path d="M216 470.3L219 488.6L264 441.4Z" fill="#12293b" stroke="#12293b"></path><path d="M625 510.4L654 485.1L651 481.1Z" fill="#1b455a" stroke="#1b455a"></path><path d="M651 481.1L654 485.1L655 463.4Z" fill="#1a4156" stroke="#1a4156"></path><path d="M723 237L722 227.4L675 269.9Z" fill="#183a4e" stroke="#183a4e"></path><path d="M291 68.9L249 61.9L289 86.7Z" fill="#1c4c62" stroke="#1c4c62"></path><path d="M242 92.4L157 148.7L226 169.3Z" fill="#132c3f" stroke="#132c3f"></path><path d="M329 7.9L357 74.6L382 39.7Z" fill="#132c3f" stroke="#132c3f"></path><path d="M667 103.4L633 104.4L667 161.3Z" fill="#1b455a" stroke="#1b455a"></path><path d="M552 0L551 0L499 53.6Z" fill="#153043" stroke="#153043"></path><path d="M109 320.1L151 371.7L195 332Z" fill="#193e52" stroke="#193e52"></path><path d="M195 441.7L186 459.7L216 470.3Z" fill="#17374a" stroke="#17374a"></path><path d="M109 320.1L195 332L161 264Z" fill="#163346" stroke="#163346"></path><path d="M685 113.9L667 161.3L719 117.6Z" fill="#163346" stroke="#163346"></path><path d="M278 552.1L312 516.1L283 496.6Z" fill="#1a4156" stroke="#1a4156"></path><path d="M353 544.1L332 600L383 555.3Z" fill="#1a4156" stroke="#1a4156"></path><path d="M173 464.3L186 459.7L195 441.7Z" fill="#12293b" stroke="#12293b"></path><path d="M350 0L329 7.9L382 39.7Z" fill="#1b485e" stroke="#1b485e"></path><path d="M361 -20.1L350 0L382 39.7Z" fill="#12293b" stroke="#12293b"></path><path d="M723 237L733 239.4L722 227.4Z" fill="#17374a" stroke="#17374a"></path><path d="M735 154.6L667 161.3L681 182.1Z" fill="#1b485e" stroke="#1b485e"></path><path d="M737 269.3L675 269.9L710 338.9Z" fill="#132c3f" stroke="#132c3f"></path><path d="M719 356.9L737 269.3L710 338.9Z" fill="#153043" stroke="#153043"></path><path d="M167 192.3L132 261.1L161 264Z" fill="#1b455a" stroke="#1b455a"></path><path d="M114 388.6L148 391.9L151 371.7Z" fill="#1b455a" stroke="#1b455a"></path><path d="M151 371.7L148 391.9L198 363.9Z" fill="#17374a" stroke="#17374a"></path><path d="M204 508.1L278 552.1L219 488.6Z" fill="#163346" stroke="#163346"></path><path d="M219 488.6L278 552.1L283 496.6Z" fill="#12293b" stroke="#12293b"></path><path d="M350 0L339 0L329 7.9Z" fill="#153043" stroke="#153043"></path><path d="M287 0L248 25.7L291 68.9Z" fill="#12293b" stroke="#12293b"></path><path d="M735 154.6L681 182.1L722 227.4Z" fill="#1c4c62" stroke="#1c4c62"></path><path d="M657 55.9L636 51.7L633 104.4Z" fill="#132c3f" stroke="#132c3f"></path><path d="M132 261.1L129 270.1L161 264Z" fill="#1b485e" stroke="#1b485e"></path><path d="M339 0L327 0L329 7.9Z" fill="#163346" stroke="#163346"></path><path d="M383 555.3L439 600L457 550.4Z" fill="#1b485e" stroke="#1b485e"></path><path d="M457 550.4L504 599.1L494 491.3Z" fill="#1a4156" stroke="#1a4156"></path><path d="M375 624.1L439 600L383 555.3Z" fill="#12293b" stroke="#12293b"></path><path d="M332 600L353 544.1L297 556.1Z" fill="#183a4e" stroke="#183a4e"></path><path d="M148 391.9L148 408.9L198 363.9Z" fill="#163346" stroke="#163346"></path><path d="M143 422.4L148 408.9L114 388.6Z" fill="#163346" stroke="#163346"></path><path d="M124 101.4L157 148.7L168 39.9Z" fill="#153043" stroke="#153043"></path><path d="M167 192.3L89 186.6L132 261.1Z" fill="#1c4c62" stroke="#1c4c62"></path><path d="M52 243L84 308.1L129 270.1Z" fill="#1b455a" stroke="#1b455a"></path><path d="M657 55.9L633 104.4L667 103.4Z" fill="#17374a" stroke="#17374a"></path><path d="M552 0L499 53.6L609 68.7Z" fill="#193e52" stroke="#193e52"></path><path d="M552 0L609 68.7L572 0Z" fill="#132c3f" stroke="#132c3f"></path><path d="M572 0L609 68.7L615 56.7Z" fill="#153043" stroke="#153043"></path><path d="M143 422.4L173 464.3L195 441.7Z" fill="#183a4e" stroke="#183a4e"></path><path d="M186 459.7L204 508.1L219 488.6Z" fill="#1c4c62" stroke="#1c4c62"></path><path d="M716 455.7L700 397.7L655 463.4Z" fill="#153043" stroke="#153043"></path><path d="M700 397.7L733 392.4L719 356.9Z" fill="#1a4156" stroke="#1a4156"></path><path d="M719 356.9L798 374L737 269.3Z" fill="#1a4156" stroke="#1a4156"></path><path d="M439 600L504 599.1L457 550.4Z" fill="#17374a" stroke="#17374a"></path><path d="M173 464.3L204 508.1L186 459.7Z" fill="#163346" stroke="#163346"></path><path d="M350 0L361 -20.1L339 0Z" fill="#132c3f" stroke="#132c3f"></path><path d="M339 0L361 -20.1L327 0Z" fill="#1a4156" stroke="#1a4156"></path><path d="M461 0L361 -20.1L382 39.7Z" fill="#1a4156" stroke="#1a4156"></path><path d="M551 0L361 -20.1L461 0Z" fill="#132c3f" stroke="#132c3f"></path><path d="M663 -18.1L361 -20.1L551 0Z" fill="#163346" stroke="#163346"></path><path d="M148 408.9L143 422.4L195 441.7Z" fill="#1b485e" stroke="#1b485e"></path><path d="M173 464.3L188 514.4L204 508.1Z" fill="#1c4c62" stroke="#1c4c62"></path><path d="M114 388.6L148 408.9L148 391.9Z" fill="#193e52" stroke="#193e52"></path><path d="M737 269.3L753 249L733 239.4Z" fill="#12293b" stroke="#12293b"></path><path d="M733 239.4L771 235.3L722 227.4Z" fill="#1b455a" stroke="#1b455a"></path><path d="M771 235.3L753 249L777 246.1Z" fill="#1c4c62" stroke="#1c4c62"></path><path d="M643 0L572 0L615 56.7Z" fill="#183a4e" stroke="#183a4e"></path><path d="M552 0L663 -18.1L551 0Z" fill="#1b485e" stroke="#1b485e"></path><path d="M157 148.7L137 168.4L167 192.3Z" fill="#1c4c62" stroke="#1c4c62"></path><path d="M679 71.9L657 55.9L667 103.4Z" fill="#17374a" stroke="#17374a"></path><path d="M636 51.7L643 0L615 56.7Z" fill="#153043" stroke="#153043"></path><path d="M679 71.9L667 103.4L685 113.9Z" fill="#132c3f" stroke="#132c3f"></path><path d="M287 0L291 68.9L329 7.9Z" fill="#17374a" stroke="#17374a"></path><path d="M168 39.9L157 148.7L242 92.4Z" fill="#12293b" stroke="#12293b"></path><path d="M157 148.7L107 157.6L137 168.4Z" fill="#193e52" stroke="#193e52"></path><path d="M287 0L329 7.9L327 0Z" fill="#12293b" stroke="#12293b"></path><path d="M375 624.1L531 600L504 599.1Z" fill="#193e52" stroke="#193e52"></path><path d="M504 599.1L531 600L494 491.3Z" fill="#153043" stroke="#153043"></path><path d="M625 510.4L651 586.3L654 485.1Z" fill="#1b455a" stroke="#1b455a"></path><path d="M752 417.6L744 391.4L733 392.4Z" fill="#12293b" stroke="#12293b"></path><path d="M733 392.4L744 391.4L719 356.9Z" fill="#153043" stroke="#153043"></path><path d="M594 580.3L612 492.6L546 473.3Z" fill="#193e52" stroke="#193e52"></path><path d="M654 485.1L706 471.3L655 463.4Z" fill="#183a4e" stroke="#183a4e"></path><path d="M361 -20.1L287 0L327 0Z" fill="#183a4e" stroke="#183a4e"></path><path d="M731 486.1L706 471.3L654 485.1Z" fill="#193e52" stroke="#193e52"></path><path d="M706 471.3L716 455.7L655 463.4Z" fill="#12293b" stroke="#12293b"></path><path d="M295 600L297 556.1L278 552.1Z" fill="#193e52" stroke="#193e52"></path><path d="M295 600L332 600L297 556.1Z" fill="#183a4e" stroke="#183a4e"></path><path d="M98 332L84 308.1L93 334.7Z" fill="#1b455a" stroke="#1b455a"></path><path d="M129 270.1L109 320.1L161 264Z" fill="#153043" stroke="#153043"></path><path d="M719 117.6L679 71.9L685 113.9Z" fill="#1b455a" stroke="#1b455a"></path><path d="M774 169.4L735 154.6L722 227.4Z" fill="#17374a" stroke="#17374a"></path><path d="M556 600L594 580.3L546 473.3Z" fill="#12293b" stroke="#12293b"></path><path d="M735 154.6L719 117.6L667 161.3Z" fill="#193e52" stroke="#193e52"></path><path d="M531 600L556 600L546 473.3Z" fill="#12293b" stroke="#12293b"></path><path d="M151 482.6L147 457.3L108 476.1Z" fill="#1a4156" stroke="#1a4156"></path><path d="M143 422.4L147 457.3L173 464.3Z" fill="#12293b" stroke="#12293b"></path><path d="M151 482.6L188 514.4L173 464.3Z" fill="#17374a" stroke="#17374a"></path><path d="M243 600L260 600L278 552.1Z" fill="#17374a" stroke="#17374a"></path><path d="M556 600L560 600L594 580.3Z" fill="#1b455a" stroke="#1b455a"></path><path d="M717 49.7L679 61.6L679 71.9Z" fill="#132c3f" stroke="#132c3f"></path><path d="M679 71.9L679 61.6L657 55.9Z" fill="#1c4c62" stroke="#1c4c62"></path><path d="M657 55.9L643 0L636 51.7Z" fill="#132c3f" stroke="#132c3f"></path><path d="M98 332L114 388.6L151 371.7Z" fill="#1c4c62" stroke="#1c4c62"></path><path d="M731 486.1L716 455.7L706 471.3Z" fill="#1a4156" stroke="#1a4156"></path><path d="M731 486.1L735 446.4L716 455.7Z" fill="#17374a" stroke="#17374a"></path><path d="M716 455.7L735 446.4L700 397.7Z" fill="#1b485e" stroke="#1b485e"></path><path d="M560 600L573 600L594 580.3Z" fill="#132c3f" stroke="#132c3f"></path><path d="M640 600L651 586.3L620 558.1Z" fill="#1c4c62" stroke="#1c4c62"></path><path d="M332 600L375 624.1L383 555.3Z" fill="#132c3f" stroke="#132c3f"></path><path d="M439 600L375 624.1L504 599.1Z" fill="#1c4c62" stroke="#1c4c62"></path><path d="M531 600L375 624.1L556 600Z" fill="#132c3f" stroke="#132c3f"></path><path d="M556 600L375 624.1L560 600Z" fill="#1c4c62" stroke="#1c4c62"></path><path d="M560 600L375 624.1L573 600Z" fill="#183a4e" stroke="#183a4e"></path><path d="M98 332L109 320.1L84 308.1Z" fill="#17374a" stroke="#17374a"></path><path d="M109 320.1L98 332L151 371.7Z" fill="#132c3f" stroke="#132c3f"></path><path d="M260 600L295 600L278 552.1Z" fill="#1b485e" stroke="#1b485e"></path><path d="M332 600L295 600L375 624.1Z" fill="#153043" stroke="#153043"></path><path d="M777 246.1L753 249L737 269.3Z" fill="#1a4156" stroke="#1a4156"></path><path d="M753 249L771 235.3L733 239.4Z" fill="#1c4c62" stroke="#1c4c62"></path><path d="M735 154.6L792 112.6L719 117.6Z" fill="#193e52" stroke="#193e52"></path><path d="M777 246.1L827 278L826 262.3Z" fill="#132c3f" stroke="#132c3f"></path><path d="M735 446.4L752 417.6L733 392.4Z" fill="#1c4c62" stroke="#1c4c62"></path><path d="M122 494.4L151 482.6L108 476.1Z" fill="#17374a" stroke="#17374a"></path><path d="M147 457.3L151 482.6L173 464.3Z" fill="#153043" stroke="#153043"></path><path d="M375 624.1L582 600L573 600Z" fill="#1a4156" stroke="#1a4156"></path><path d="M573 600L582 600L594 580.3Z" fill="#132c3f" stroke="#132c3f"></path><path d="M662 592.3L731 486.1L654 485.1Z" fill="#1a4156" stroke="#1a4156"></path><path d="M84 308.1L109 320.1L129 270.1Z" fill="#1b455a" stroke="#1b455a"></path><path d="M98 332L93 334.7L114 388.6Z" fill="#12293b" stroke="#12293b"></path><path d="M798 374L719 356.9L744 391.4Z" fill="#193e52" stroke="#193e52"></path><path d="M771 235.3L774 169.4L722 227.4Z" fill="#153043" stroke="#153043"></path><path d="M800 207.4L780 237.1L826 262.3Z" fill="#163346" stroke="#163346"></path><path d="M777 246.1L780 237.1L771 235.3Z" fill="#1c4c62" stroke="#1c4c62"></path><path d="M52 243L129 270.1L132 261.1Z" fill="#1b455a" stroke="#1b455a"></path><path d="M124 101.4L107 157.6L157 148.7Z" fill="#1b485e" stroke="#1b485e"></path><path d="M137 168.4L89 186.6L167 192.3Z" fill="#12293b" stroke="#12293b"></path><path d="M735 446.4L777 483.6L752 417.6Z" fill="#1c4c62" stroke="#1c4c62"></path><path d="M651 586.3L625 510.4L620 558.1Z" fill="#17374a" stroke="#17374a"></path><path d="M243 600L204 508.1L188 514.4Z" fill="#12293b" stroke="#12293b"></path><path d="M243 600L278 552.1L204 508.1Z" fill="#1c4c62" stroke="#1c4c62"></path><path d="M295 600L260 600L375 624.1Z" fill="#163346" stroke="#163346"></path><path d="M687 1.9L657 55.9L679 61.6Z" fill="#1c4c62" stroke="#1c4c62"></path><path d="M687 1.9L643 0L657 55.9Z" fill="#163346" stroke="#163346"></path><path d="M572 0L663 -18.1L552 0Z" fill="#12293b" stroke="#12293b"></path><path d="M287 0L224 0L248 25.7Z" fill="#193e52" stroke="#193e52"></path><path d="M248 25.7L168 39.9L249 61.9Z" fill="#132c3f" stroke="#132c3f"></path><path d="M361 -20.1L224 0L287 0Z" fill="#153043" stroke="#153043"></path><path d="M800 207.4L774 169.4L771 235.3Z" fill="#183a4e" stroke="#183a4e"></path><path d="M719 117.6L717 49.7L679 71.9Z" fill="#1b485e" stroke="#1b485e"></path><path d="M107 157.6L89 186.6L137 168.4Z" fill="#1c4c62" stroke="#1c4c62"></path><path d="M168 39.9L242 92.4L249 61.9Z" fill="#1b485e" stroke="#1b485e"></path><path d="M0 179.4L12 196.4L89 186.6Z" fill="#1a4156" stroke="#1a4156"></path><path d="M155 600L243 600L188 514.4Z" fill="#1c4c62" stroke="#1c4c62"></path><path d="M260 600L243 600L375 624.1Z" fill="#183a4e" stroke="#183a4e"></path><path d="M200 0L168 39.9L248 25.7Z" fill="#12293b" stroke="#12293b"></path><path d="M640 600L620 558.1L594 580.3Z" fill="#12293b" stroke="#12293b"></path><path d="M800 207.4L779 153.3L774 169.4Z" fill="#193e52" stroke="#193e52"></path><path d="M774 169.4L779 153.3L735 154.6Z" fill="#1a4156" stroke="#1a4156"></path><path d="M746 76.7L717 49.7L719 117.6Z" fill="#132c3f" stroke="#132c3f"></path><path d="M582 600L640 600L594 580.3Z" fill="#12293b" stroke="#12293b"></path><path d="M375 624.1L640 600L582 600Z" fill="#1b455a" stroke="#1b455a"></path><path d="M830 441.3L798 374L752 417.6Z" fill="#1b485e" stroke="#1b485e"></path><path d="M752 417.6L798 374L744 391.4Z" fill="#153043" stroke="#153043"></path><path d="M780 237.1L800 207.4L771 235.3Z" fill="#1a4156" stroke="#1a4156"></path><path d="M361 -20.1L200 0L224 0Z" fill="#132c3f" stroke="#132c3f"></path><path d="M224 0L200 0L248 25.7Z" fill="#1b455a" stroke="#1b455a"></path><path d="M108 476.1L147 457.3L143 422.4Z" fill="#1b455a" stroke="#1b455a"></path><path d="M151 482.6L141 527.4L188 514.4Z" fill="#1b485e" stroke="#1b485e"></path><path d="M108 476.1L143 422.4L114 388.6Z" fill="#12293b" stroke="#12293b"></path><path d="M108 476.1L114 388.6L0 433.6Z" fill="#17374a" stroke="#17374a"></path><path d="M826 262.3L780 237.1L777 246.1Z" fill="#1b485e" stroke="#1b485e"></path><path d="M32 334.9L114 388.6L93 334.7Z" fill="#163346" stroke="#163346"></path><path d="M792 112.6L746 76.7L719 117.6Z" fill="#1b485e" stroke="#1b485e"></path><path d="M122 494.4L141 527.4L151 482.6Z" fill="#1b485e" stroke="#1b485e"></path><path d="M107 500.4L141 527.4L122 494.4Z" fill="#12293b" stroke="#12293b"></path><path d="M640 600L662 592.3L651 586.3Z" fill="#193e52" stroke="#193e52"></path><path d="M651 586.3L662 592.3L654 485.1Z" fill="#132c3f" stroke="#132c3f"></path><path d="M797 0L687 1.9L717 49.7Z" fill="#153043" stroke="#153043"></path><path d="M717 49.7L687 1.9L679 61.6Z" fill="#17374a" stroke="#17374a"></path><path d="M643 0L663 -18.1L572 0Z" fill="#1b455a" stroke="#1b455a"></path><path d="M687 1.9L663 -18.1L643 0Z" fill="#132c3f" stroke="#132c3f"></path><path d="M12 196.4L52 243L89 186.6Z" fill="#12293b" stroke="#12293b"></path><path d="M89 186.6L52 243L132 261.1Z" fill="#163346" stroke="#163346"></path><path d="M84 308.1L32 334.9L93 334.7Z" fill="#12293b" stroke="#12293b"></path><path d="M900 634.1L666 600L640 600Z" fill="#1b485e" stroke="#1b485e"></path><path d="M640 600L666 600L662 592.3Z" fill="#12293b" stroke="#12293b"></path><path d="M662 592.3L738 598.1L731 486.1Z" fill="#163346" stroke="#163346"></path><path d="M731 486.1L777 483.6L735 446.4Z" fill="#1b485e" stroke="#1b485e"></path><path d="M168 39.9L131 50.9L124 101.4Z" fill="#17374a" stroke="#17374a"></path><path d="M124 101.4L104 73.6L107 157.6Z" fill="#183a4e" stroke="#183a4e"></path><path d="M121 35.7L131 50.9L126 23.9Z" fill="#183a4e" stroke="#183a4e"></path><path d="M90 504.3L107 500.4L108 476.1Z" fill="#132c3f" stroke="#132c3f"></path><path d="M108 476.1L107 500.4L122 494.4Z" fill="#132c3f" stroke="#132c3f"></path><path d="M827 278L777 246.1L737 269.3Z" fill="#1b455a" stroke="#1b455a"></path><path d="M837 132.3L795 125.7L779 153.3Z" fill="#153043" stroke="#153043"></path><path d="M779 153.3L792 112.6L735 154.6Z" fill="#17374a" stroke="#17374a"></path><path d="M833 338.7L827 278L737 269.3Z" fill="#183a4e" stroke="#183a4e"></path><path d="M801 503.6L777 483.6L731 486.1Z" fill="#17374a" stroke="#17374a"></path><path d="M798 374L833 338.7L737 269.3Z" fill="#1c4c62" stroke="#1c4c62"></path><path d="M131 50.9L104 73.6L124 101.4Z" fill="#1b485e" stroke="#1b485e"></path><path d="M805 114.9L795 125.7L837 132.3Z" fill="#17374a" stroke="#17374a"></path><path d="M746 76.7L781 68.9L717 49.7Z" fill="#1b485e" stroke="#1b485e"></path><path d="M795 125.7L792 112.6L779 153.3Z" fill="#153043" stroke="#153043"></path><path d="M870 368.7L833 338.7L798 374Z" fill="#12293b" stroke="#12293b"></path><path d="M900 209.6L871 177.1L826 262.3Z" fill="#1b485e" stroke="#1b485e"></path><path d="M126 23.9L131 50.9L168 39.9Z" fill="#1a4156" stroke="#1a4156"></path><path d="M131 50.9L98 44.7L104 73.6Z" fill="#1b455a" stroke="#1b455a"></path><path d="M0 272.3L32 334.9L84 308.1Z" fill="#12293b" stroke="#12293b"></path><path d="M33 505.1L90 504.3L108 476.1Z" fill="#1a4156" stroke="#1a4156"></path><path d="M107 500.4L90 504.3L141 527.4Z" fill="#1b485e" stroke="#1b485e"></path><path d="M141 527.4L155 600L188 514.4Z" fill="#17374a" stroke="#17374a"></path><path d="M130 0L126 23.9L168 39.9Z" fill="#1b485e" stroke="#1b485e"></path><path d="M121 35.7L98 44.7L131 50.9Z" fill="#1b485e" stroke="#1b485e"></path><path d="M837 132.3L779 153.3L800 207.4Z" fill="#1c4c62" stroke="#1c4c62"></path><path d="M795 125.7L805 114.9L792 112.6Z" fill="#12293b" stroke="#12293b"></path><path d="M792 112.6L781 68.9L746 76.7Z" fill="#1a4156" stroke="#1a4156"></path><path d="M801 503.6L804 468.3L777 483.6Z" fill="#1c4c62" stroke="#1c4c62"></path><path d="M777 483.6L804 468.3L752 417.6Z" fill="#163346" stroke="#163346"></path><path d="M805 114.9L781 68.9L792 112.6Z" fill="#1b455a" stroke="#1b455a"></path><path d="M687 1.9L797 0L663 -18.1Z" fill="#132c3f" stroke="#132c3f"></path><path d="M870 368.7L848 331L833 338.7Z" fill="#17374a" stroke="#17374a"></path><path d="M833 338.7L848 331L827 278Z" fill="#17374a" stroke="#17374a"></path><path d="M871 177.1L837 132.3L800 207.4Z" fill="#153043" stroke="#153043"></path><path d="M111 0L98 44.7L121 35.7Z" fill="#163346" stroke="#163346"></path><path d="M0 179.4L89 186.6L0 126.7Z" fill="#1c4c62" stroke="#1c4c62"></path><path d="M130 600L155 600L141 527.4Z" fill="#17374a" stroke="#17374a"></path><path d="M243 600L78 627.1L375 624.1Z" fill="#193e52" stroke="#193e52"></path><path d="M200 0L130 0L168 39.9Z" fill="#1a4156" stroke="#1a4156"></path><path d="M126 23.9L111 0L121 35.7Z" fill="#12293b" stroke="#12293b"></path><path d="M-8 -17.1L130 0L200 0Z" fill="#132c3f" stroke="#132c3f"></path><path d="M804 468.3L830 441.3L752 417.6Z" fill="#1b455a" stroke="#1b455a"></path><path d="M768 590.1L801 503.6L731 486.1Z" fill="#17374a" stroke="#17374a"></path><path d="M804 468.3L851 487.3L830 441.3Z" fill="#17374a" stroke="#17374a"></path><path d="M871 177.1L800 207.4L826 262.3Z" fill="#163346" stroke="#163346"></path><path d="M810 0L809 0L781 68.9Z" fill="#163346" stroke="#163346"></path><path d="M751 600L738 598.1L666 600Z" fill="#1c4c62" stroke="#1c4c62"></path><path d="M666 600L738 598.1L662 592.3Z" fill="#1c4c62" stroke="#1c4c62"></path><path d="M89 186.6L107 157.6L0 126.7Z" fill="#163346" stroke="#163346"></path><path d="M52 243L0 272.3L84 308.1Z" fill="#17374a" stroke="#17374a"></path><path d="M99 576.3L130 600L141 527.4Z" fill="#1a4156" stroke="#1a4156"></path><path d="M155 600L78 627.1L243 600Z" fill="#1b485e" stroke="#1b485e"></path><path d="M-8 -17.1L111 0L130 0Z" fill="#193e52" stroke="#193e52"></path><path d="M130 0L111 0L126 23.9Z" fill="#17374a" stroke="#17374a"></path><path d="M0 126.7L107 157.6L104 73.6Z" fill="#1c4c62" stroke="#1c4c62"></path><path d="M0 214.1L0 272.3L52 243Z" fill="#17374a" stroke="#17374a"></path><path d="M32 334.9L0 393.7L114 388.6Z" fill="#1a4156" stroke="#1a4156"></path><path d="M0 272.3L0 320.9L32 334.9Z" fill="#1b455a" stroke="#1b455a"></path><path d="M90 504.3L99 576.3L141 527.4Z" fill="#17374a" stroke="#17374a"></path><path d="M0 320.9L0 334L32 334.9Z" fill="#1b455a" stroke="#1b455a"></path><path d="M33 505.1L99 576.3L90 504.3Z" fill="#1b455a" stroke="#1b455a"></path><path d="M12 196.4L0 214.1L52 243Z" fill="#1b455a" stroke="#1b455a"></path><path d="M-18 199.3L0 214.1L12 196.4Z" fill="#1b485e" stroke="#1b485e"></path><path d="M830 441.3L870 368.7L798 374Z" fill="#132c3f" stroke="#132c3f"></path><path d="M900 283L826 262.3L827 278Z" fill="#1b455a" stroke="#1b455a"></path><path d="M900 394.9L870 368.7L830 441.3Z" fill="#1b485e" stroke="#1b485e"></path><path d="M900 634.1L751 600L666 600Z" fill="#1c4c62" stroke="#1c4c62"></path><path d="M738 598.1L768 590.1L731 486.1Z" fill="#1b485e" stroke="#1b485e"></path><path d="M0 334L0 393.7L32 334.9Z" fill="#163346" stroke="#163346"></path><path d="M751 600L768 590.1L738 598.1Z" fill="#1b455a" stroke="#1b455a"></path><path d="M801 503.6L851 487.3L804 468.3Z" fill="#193e52" stroke="#193e52"></path><path d="M0 126.7L104 73.6L0 98.6Z" fill="#132c3f" stroke="#132c3f"></path><path d="M108 600L109 600L99 576.3Z" fill="#163346" stroke="#163346"></path><path d="M99 576.3L109 600L130 600Z" fill="#153043" stroke="#153043"></path><path d="M130 600L78 627.1L155 600Z" fill="#17374a" stroke="#17374a"></path><path d="M78 627.1L108 600L99 576.3Z" fill="#193e52" stroke="#193e52"></path><path d="M109 600L78 627.1L130 600Z" fill="#183a4e" stroke="#183a4e"></path><path d="M900 283L827 278L848 331Z" fill="#1b485e" stroke="#1b485e"></path><path d="M900 316.7L887 333.9L900 329.1Z" fill="#17374a" stroke="#17374a"></path><path d="M870 368.7L887 333.9L848 331Z" fill="#12293b" stroke="#12293b"></path><path d="M0 433.6L33 505.1L108 476.1Z" fill="#1a4156" stroke="#1a4156"></path><path d="M0 393.7L0 433.6L114 388.6Z" fill="#17374a" stroke="#17374a"></path><path d="M0 334L-11 395.7L0 393.7Z" fill="#1a4156" stroke="#1a4156"></path><path d="M0 393.7L-11 395.7L0 433.6Z" fill="#183a4e" stroke="#183a4e"></path><path d="M-21 397.9L-11 395.7L0 334Z" fill="#132c3f" stroke="#132c3f"></path><path d="M-21 397.9L0 334L0 320.9Z" fill="#17374a" stroke="#17374a"></path><path d="M-21 397.9L0 320.9L0 272.3Z" fill="#163346" stroke="#163346"></path><path d="M-18 199.3L0 272.3L0 214.1Z" fill="#183a4e" stroke="#183a4e"></path><path d="M840 514.4L851 487.3L801 503.6Z" fill="#1b485e" stroke="#1b485e"></path><path d="M0 126.7L-18 199.3L0 179.4Z" fill="#17374a" stroke="#17374a"></path><path d="M0 179.4L-18 199.3L12 196.4Z" fill="#1b455a" stroke="#1b455a"></path><path d="M822 600L840 514.4L801 503.6Z" fill="#1a4156" stroke="#1a4156"></path><path d="M781 68.9L819 0L810 0Z" fill="#1a4156" stroke="#1a4156"></path><path d="M809 0L797 0L781 68.9Z" fill="#17374a" stroke="#17374a"></path><path d="M781 68.9L797 0L717 49.7Z" fill="#12293b" stroke="#12293b"></path><path d="M0 98.6L104 73.6L20 22.7Z" fill="#183a4e" stroke="#183a4e"></path><path d="M900 316.7L900 283L848 331Z" fill="#1b485e" stroke="#1b485e"></path><path d="M900 316.7L848 331L887 333.9Z" fill="#12293b" stroke="#12293b"></path><path d="M900 329.1L887 333.9L900 353.6Z" fill="#193e52" stroke="#193e52"></path><path d="M900 353.6L887 333.9L870 368.7Z" fill="#12293b" stroke="#12293b"></path><path d="M900 283L900 250.4L826 262.3Z" fill="#1c4c62" stroke="#1c4c62"></path><path d="M-18 199.3L-21 397.9L0 272.3Z" fill="#1b485e" stroke="#1b485e"></path><path d="M-11 395.7L-24 409.6L0 433.6Z" fill="#1a4156" stroke="#1a4156"></path><path d="M0 433.6L0 522.4L33 505.1Z" fill="#12293b" stroke="#12293b"></path><path d="M111 0L67 0L98 44.7Z" fill="#163346" stroke="#163346"></path><path d="M-8 -17.1L67 0L111 0Z" fill="#1c4c62" stroke="#1c4c62"></path><path d="M900 394.9L900 353.6L870 368.7Z" fill="#1c4c62" stroke="#1c4c62"></path><path d="M751 600L788 600L768 590.1Z" fill="#1a4156" stroke="#1a4156"></path><path d="M768 590.1L788 600L801 503.6Z" fill="#163346" stroke="#163346"></path><path d="M900 634.1L788 600L751 600Z" fill="#1b455a" stroke="#1b455a"></path><path d="M900 250.4L900 209.6L826 262.3Z" fill="#1b485e" stroke="#1b485e"></path><path d="M871 177.1L896 113.7L837 132.3Z" fill="#1c4c62" stroke="#1c4c62"></path><path d="M900 190.3L895 180.6L871 177.1Z" fill="#163346" stroke="#163346"></path><path d="M781 68.9L900 81.7L819 0Z" fill="#1b455a" stroke="#1b455a"></path><path d="M797 0L900 -20.1L663 -18.1Z" fill="#1c4c62" stroke="#1c4c62"></path><path d="M-18 199.3L-24 409.6L-21 397.9Z" fill="#183a4e" stroke="#183a4e"></path><path d="M-21 397.9L-24 409.6L-11 395.7Z" fill="#17374a" stroke="#17374a"></path><path d="M781 68.9L805 114.9L900 81.7Z" fill="#193e52" stroke="#193e52"></path><path d="M809 0L900 -20.1L797 0Z" fill="#17374a" stroke="#17374a"></path><path d="M20 22.7L104 73.6L98 44.7Z" fill="#12293b" stroke="#12293b"></path><path d="M0 126.7L0 98.6L-18 199.3Z" fill="#1b485e" stroke="#1b485e"></path><path d="M900 209.6L900 190.3L871 177.1Z" fill="#163346" stroke="#163346"></path><path d="M900 81.7L805 114.9L837 132.3Z" fill="#163346" stroke="#163346"></path><path d="M851 487.3L900 394.9L830 441.3Z" fill="#12293b" stroke="#12293b"></path><path d="M933 370.9L900 394.9L900 495.6Z" fill="#183a4e" stroke="#183a4e"></path><path d="M896 113.7L871 177.1L895 180.6Z" fill="#163346" stroke="#163346"></path><path d="M810 0L900 -20.1L809 0Z" fill="#17374a" stroke="#17374a"></path><path d="M0 573.1L78 627.1L99 576.3Z" fill="#1b455a" stroke="#1b455a"></path><path d="M108 600L78 627.1L109 600Z" fill="#17374a" stroke="#17374a"></path><path d="M0 573.1L99 576.3L33 505.1Z" fill="#1b455a" stroke="#1b455a"></path><path d="M-24 409.6L0 522.4L0 433.6Z" fill="#193e52" stroke="#193e52"></path><path d="M67 0L20 22.7L98 44.7Z" fill="#163346" stroke="#163346"></path><path d="M900 190.3L896 113.7L895 180.6Z" fill="#132c3f" stroke="#132c3f"></path><path d="M900 634.1L822 600L788 600Z" fill="#1a4156" stroke="#1a4156"></path><path d="M788 600L822 600L801 503.6Z" fill="#153043" stroke="#153043"></path><path d="M840 514.4L900 495.6L851 487.3Z" fill="#1c4c62" stroke="#1c4c62"></path><path d="M-24 409.6L0 533.3L0 522.4Z" fill="#163346" stroke="#163346"></path><path d="M0 522.4L0 533.3L33 505.1Z" fill="#183a4e" stroke="#183a4e"></path><path d="M900 495.6L900 394.9L851 487.3Z" fill="#12293b" stroke="#12293b"></path><path d="M900 394.9L933 370.9L900 353.6Z" fill="#132c3f" stroke="#132c3f"></path><path d="M900 353.6L933 370.9L900 329.1Z" fill="#132c3f" stroke="#132c3f"></path><path d="M900 329.1L933 370.9L900 316.7Z" fill="#1b455a" stroke="#1b455a"></path><path d="M900 316.7L933 370.9L900 283Z" fill="#163346" stroke="#163346"></path><path d="M900 283L933 370.9L900 250.4Z" fill="#153043" stroke="#153043"></path><path d="M900 250.4L933 370.9L900 209.6Z" fill="#163346" stroke="#163346"></path><path d="M900 209.6L933 370.9L900 190.3Z" fill="#163346" stroke="#163346"></path><path d="M900 190.3L900 81.7L896 113.7Z" fill="#153043" stroke="#153043"></path><path d="M900 539.4L900 495.6L840 514.4Z" fill="#17374a" stroke="#17374a"></path><path d="M933 370.9L900 81.7L900 190.3Z" fill="#12293b" stroke="#12293b"></path><path d="M896 113.7L900 81.7L837 132.3Z" fill="#1b485e" stroke="#1b485e"></path><path d="M0 0L0 10.9L20 22.7Z" fill="#1b455a" stroke="#1b455a"></path><path d="M20 22.7L0 10.9L0 98.6Z" fill="#17374a" stroke="#17374a"></path><path d="M0 98.6L-8 -17.1L-18 199.3Z" fill="#12293b" stroke="#12293b"></path><path d="M-24 409.6L0 573.1L0 533.3Z" fill="#1a4156" stroke="#1a4156"></path><path d="M0 533.3L0 573.1L33 505.1Z" fill="#17374a" stroke="#17374a"></path><path d="M-8 -17.1L0 0L67 0Z" fill="#163346" stroke="#163346"></path><path d="M67 0L0 0L20 22.7Z" fill="#1b485e" stroke="#1b485e"></path><path d="M0 10.9L-8 -17.1L0 98.6Z" fill="#1a4156" stroke="#1a4156"></path><path d="M892 560.1L900 539.4L840 514.4Z" fill="#1c4c62" stroke="#1c4c62"></path><path d="M900 495.6L900 539.4L933 370.9Z" fill="#1b485e" stroke="#1b485e"></path><path d="M822 600L892 560.1L840 514.4Z" fill="#12293b" stroke="#12293b"></path><path d="M-24 409.6L0 600L0 573.1Z" fill="#1a4156" stroke="#1a4156"></path><path d="M0 573.1L0 600L78 627.1Z" fill="#153043" stroke="#153043"></path><path d="M361 -20.1L-8 -17.1L200 0Z" fill="#163346" stroke="#163346"></path><path d="M0 0L-8 -17.1L0 10.9Z" fill="#183a4e" stroke="#183a4e"></path><path d="M900 600L900 568.3L892 560.1Z" fill="#153043" stroke="#153043"></path><path d="M892 560.1L900 568.3L900 539.4Z" fill="#132c3f" stroke="#132c3f"></path><path d="M900 539.4L900 568.3L933 370.9Z" fill="#1a4156" stroke="#1a4156"></path><path d="M933 370.9L900 0L900 81.7Z" fill="#1c4c62" stroke="#1c4c62"></path><path d="M900 81.7L900 0L819 0Z" fill="#12293b" stroke="#12293b"></path><path d="M819 0L900 -20.1L810 0Z" fill="#132c3f" stroke="#132c3f"></path><path d="M822 600L900 600L892 560.1Z" fill="#183a4e" stroke="#183a4e"></path><path d="M900 568.3L900 600L933 370.9Z" fill="#1a4156" stroke="#1a4156"></path><path d="M900 634.1L900 600L822 600Z" fill="#132c3f" stroke="#132c3f"></path><path d="M933 370.9L900 -20.1L900 0Z" fill="#1b485e" stroke="#1b485e"></path><path d="M900 0L900 -20.1L819 0Z" fill="#12293b" stroke="#12293b"></path><path d="M663 -18.1L900 -20.1L361 -20.1Z" fill="#1b485e" stroke="#1b485e"></path><path d="M375 624.1L900 634.1L640 600Z" fill="#1b485e" stroke="#1b485e"></path><path d="M900 600L900 634.1L933 370.9Z" fill="#17374a" stroke="#17374a"></path><path d="M78 627.1L900 634.1L375 624.1Z" fill="#1a4156" stroke="#1a4156"></path></g></svg>